<svg width="128px" height="128px" viewBox="0 0 128 128" version="1.1" xmlns="http://www.w3.org/2000/svg" xmlns:xlink="http://www.w3.org/1999/xlink">
  <g id="Page-1" stroke="none" stroke-width="1" fill="none" fill-rule="evenodd">
    <path d="M112,0 L16,0 C7.175,0 0,7.1745806 0,15.9990648 L0,87.9948562 C0,96.8193403 7.175,103.993921 16,103.993921 L40,103.993921 L40,124.992693 C40,127.44255 42.8,128.867467 44.775,127.417552 L76,103.993921 L112,103.993921 C120.825,103.993921 128,96.8193403 128,87.9948562 L128,15.9990648 C128,7.1745806 120.825,0 112,0 Z M85.7350346,24.7283398 C90.7604007,24.7283398 94.8350219,28.8291983 94.8350219,33.8869238 C94.8350219,38.9446493 90.7604007,43.0455079 85.7350346,43.0455079 C80.7096685,43.0455079 76.6350473,38.9446493 76.6350473,33.8869238 C76.6350473,28.8291983 80.7096685,24.7283398 85.7350346,24.7283398 Z M42.2724089,24.7283398 C47.297775,24.7283398 51.3723961,28.8291983 51.3723961,33.8869238 C51.3723961,38.9446493 47.297775,43.0455079 42.2724089,43.0455079 C37.2470428,43.0455079 33.1724216,38.9446493 33.1724216,33.8869238 C33.1724216,28.8291983 37.2470428,24.7283398 42.2724089,24.7283398 Z M98.0268084,68.8792537 C89.5719695,78.8580095 77.1783302,84.5650376 64.0037217,84.5650376 C50.8291133,84.5650376 38.4354739,78.8580095 29.980635,68.8792537 C28.0112348,66.5896077 28.2828762,63.1380517 30.5918282,61.1901439 C32.866825,59.2422361 36.2962978,59.4814529 38.2317429,61.8052727 C44.615316,69.3235134 54.0208999,73.6294148 63.9697666,73.6294148 C73.9525884,73.6294148 83.3242171,69.3235134 89.7077902,61.7710989 C91.6771905,59.4814529 95.1066633,59.2080623 97.3816601,61.1559701 C99.6906121,63.1380517 99.9622535,66.5896077 98.0268084,68.8792537 Z" id="Shape" fill="#17A05D" fill-rule="nonzero"></path>
  </g>
</svg>