<svg width="109px" height="109px" viewBox="0 0 109 109" version="1.1" xmlns="http://www.w3.org/2000/svg" xmlns:xlink="http://www.w3.org/1999/xlink">
    <defs>
        <path d="M87.0955791,71.9060603 C87.0955791,71.9060603 89.3180548,74.0179753 84.6585195,75.6684636 C75.7839442,78.774221 47.7500956,79.7148219 39.963767,75.7926939 C37.1588494,74.3906662 42.416154,72.4207287 44.0715152,72.0125434 C45.7881861,71.5866109 46.7844683,71.6575997 46.7844683,71.6575997 C43.6730023,69.1197522 26.6595677,76.6445588 38.1398042,78.7919682 C69.4383929,84.6840338 95.2191109,76.1476376 87.0955791,71.9060603 Z M48.7717164,71.9311018 C32.1268055,74.104896 58.9024817,78.5908168 80.0946046,74.3519181 C76.6260335,73.7195416 74.1303544,72.9883563 74.1303544,72.9883563 C64.6763834,73.8282313 60.29837,73.8875166 51.7115418,73.432996 C44.626351,73.0575224 48.7717164,71.9311018 48.7717164,71.9311018 Z M46.1914379,64.4650023 C27.8333914,68.2165946 56.3856527,72.4631886 82.0403883,67.8388301 C79.3120611,67.2526438 77.5777756,66.1714558 77.5777756,66.1714558 C65.0570802,67.656461 57.8026909,67.6173819 48.6448174,67.0311956 C41.5596266,66.575273 46.1914379,64.4650023 46.1914379,64.4650023 Z M51.7121932,50.1703723 C51.7121932,50.1703723 32.8755017,56.2731931 45.0353853,58.4823591 C50.1745041,59.4212546 60.4122763,59.200338 69.9419022,58.1233696 C77.7315114,57.2397032 85.5615862,55.3066831 85.5615862,55.3066831 C85.5615862,55.3066831 82.809932,56.9083283 80.8271224,58.7585048 C61.7071724,65.6345337 24.7824012,62.4312431 35.4045956,55.4171414 C44.40817,49.5076225 51.7121932,50.1703723 51.7121932,50.1703723 Z M83.4414023,72.9283595 C83.3662873,73.2068411 83.1409422,73.5085296 83.1409422,73.5317364 C102.415457,65.711043 95.3245992,45.9388447 86.1154972,50.9515147 C85.3042549,51.392444 84.8836108,52.4135434 84.8836108,52.4135434 C84.8836108,52.4135434 85.394393,52.0886481 86.5361413,51.7173392 C91.1932728,50.2088969 97.87851,61.3481635 83.4414023,72.9283595 Z M64.6982986,53.0668438 C57.1197478,37.3922611 72.9921487,30.2704071 72.9830982,30.2704071 C62.8783599,40.7905887 64.7435707,43.8474575 67.1792101,49.993715 C69.7868835,56.5789909 64.1097612,61.8472116 64.1097612,61.8472116 C64.1097612,61.8472116 66.9347408,57.6846669 64.6982986,53.0668438 Z M63.6072708,10.01501 C63.6072708,10.01501 67.7733723,18.7999219 59.6526068,32.3075496 C53.145031,43.1400726 58.1647134,49.3324447 59.6526068,56.3834924 C55.8545631,49.1508018 53.0667208,42.7932997 54.9383341,36.8651355 C57.6870213,28.1958145 65.2909396,23.9684885 63.6072708,10.01501" id="path-1"></path>
        <filter x="-8.9%" y="-6.4%" width="124.3%" height="121.2%" filterUnits="objectBoundingBox" id="filter-2">
            <feOffset dx="2" dy="3" in="SourceAlpha" result="shadowOffsetOuter1"></feOffset>
            <feGaussianBlur stdDeviation="2" in="shadowOffsetOuter1" result="shadowBlurOuter1"></feGaussianBlur>
            <feColorMatrix values="0 0 0 0 0   0 0 0 0 0   0 0 0 0 0  0 0 0 0.5 0" type="matrix" in="shadowBlurOuter1"></feColorMatrix>
        </filter>
    </defs>
    <g id="Page-1" stroke="none" stroke-width="1" fill="none" fill-rule="evenodd">
        <g id="Group" transform="translate(-9.000000, -10.000000)" fill-rule="nonzero">
            <rect id="Rectangle" x="0" y="0" width="128" height="128"></rect>
            <path d="M104.375,10 L22.625,10 C15.1099609,10 9,16.1096038 9,23.6242036 L9,84.9331197 C9,92.4477195 15.1099609,98.5573233 22.625,98.5573233 L43.0625,98.5573233 L43.0625,116.439091 C43.0625,118.525297 45.446875,119.738702 47.1287109,118.504009 L73.71875,98.5573233 L104.375,98.5573233 C111.890039,98.5573233 118,92.4477195 118,84.9331197 L118,23.6242036 C118,16.1096038 111.890039,10 104.375,10 Z" id="Path" fill="#17A05D"></path>
            <g id="Shape">
                <use fill="black" fill-opacity="1" filter="url(#filter-2)" xlink:href="#path-1"></use>
                <use fill="#FFFFFF" xlink:href="#path-1"></use>
            </g>
        </g>
    </g>
</svg>