<svg xmlns="http://www.w3.org/2000/svg" viewBox="0 0 512 512">
  <path fill="currentColor" d="M493.611,157.515L372.952,36.856c-24.477-24.478-64.308-24.479-88.789,0L18.389,302.631C6.53,314.489,0,330.255,0,347.025
    s6.53,32.535,18.389,44.394l102.084,102.084H246.41l247.2-247.2C505.47,234.444,512,218.679,512,201.909
    C512,185.139,505.47,169.373,493.611,157.515z M232.58,460.112h-98.277L42,367.807c-5.552-5.551-8.608-12.931-8.608-20.782
    s3.056-15.231,8.608-20.783L163.082,205.16l162.224,162.225L232.58,460.112z M470,222.692L348.918,343.774L186.693,181.549
    L307.775,60.467c11.46-11.46,30.107-11.459,41.567,0L470,181.125c5.552,5.551,8.608,12.931,8.608,20.783
    C478.609,209.759,475.552,217.14,470,222.692z"></path>
</svg>