<svg xmlns="http://www.w3.org/2000/svg" viewBox="0 0 512 512">
  <g id="Page-1" stroke="none" stroke-width="1" fill="none" fill-rule="evenodd">
    <polyline points="498.334 19 300.144 305.103 279.486 334.925 279.486 435.065 354.796 361.463 316.334 289.667"></polyline>
    <polyline points="209.505 313.515 64 269 502 10 502 403 283 336"></polyline>
    <polygon points="279.486 435.065 213.353 314.693 498.334 19 285.632 326.052"></polygon>
    <path fill="currentColor" d="M506.955,1.314 C503.836,-0.466 500,-0.436 496.91,1.392 L313.656,109.756 C308.902,112.567 307.327,118.699 310.138,123.453 C312.948,128.206 319.08,129.781 323.835,126.971 L455.317,49.222 L210.411,303.335 L88.603,266.069 L247.568,172.069 C252.322,169.257 253.897,163.125 251.086,158.371 C248.276,153.618 242.143,152.041 237.389,154.853 L58.91,260.392 C55.5,262.409 53.601,266.248 54.07,270.183 C54.539,274.118 57.286,277.404 61.074,278.563 L206.543,323.067 L270.72,439.88 C270.787,440.001 270.856,440.103 270.927,440.194 C271.998,441.98 273.603,443.439 275.605,444.281 C276.858,444.808 278.175,445.065 279.483,445.065 C282.046,445.065 284.569,444.079 286.474,442.216 L360.268,370.096 L499.074,412.562 C500.034,412.855 501.019,413 501.999,413 C504.115,413 506.205,412.328 507.947,411.039 C510.496,409.153 512,406.17 512,403 L512,10 C512,6.409 510.074,3.093 506.955,1.314 Z M419.584,115.12 L271.265,329.23 C270.107,330.903 269.486,332.889 269.486,334.924 L269.486,396.095 L225.663,316.33 L419.584,115.12 Z M289.486,411.309 L289.486,348.442 L338.476,363.43 L289.486,411.309 Z M295.501,329.367 L492,45.704 L492,389.483 L295.501,329.367 Z"></path>
    <path fill="currentColor" d="M164.423,347.577 C160.517,343.672 154.187,343.672 150.28,347.577 L56.928,440.929 C53.023,444.834 53.023,451.166 56.928,455.072 C58.882,457.024 61.441,458 64,458 C66.559,458 69.118,457.024 71.071,455.071 L164.423,361.719 C168.328,357.815 168.328,351.483 164.423,347.577 Z"></path>
    <path fill="currentColor" d="M25.929,471.929 L2.929,494.929 C-0.976,498.834 -0.976,505.166 2.929,509.072 C4.882,511.024 7.441,512 10,512 C12.559,512 15.118,511.023 17.071,509.071 L40.071,486.071 C43.976,482.166 43.976,475.834 40.071,471.928 C36.165,468.025 29.835,468.025 25.929,471.929 Z"></path>
    <path fill="currentColor" d="M135.58,491.41 C132.939,491.41 130.37,492.48 128.51,494.34 C126.65,496.2 125.58,498.77 125.58,501.41 C125.58,504.04 126.649,506.62 128.51,508.48 C130.37,510.34 132.95,511.41 135.58,511.41 C138.21,511.41 140.79,510.34 142.649,508.48 C144.509,506.62 145.58,504.04 145.58,501.41 C145.58,498.77 144.51,496.2 142.649,494.34 C140.79,492.48 138.21,491.41 135.58,491.41 Z"></path>
    <path fill="currentColor" d="M202.909,419.935 L153.463,469.38 C149.558,473.285 149.558,479.617 153.463,483.522 C155.416,485.475 157.975,486.451 160.534,486.451 C163.093,486.451 165.652,485.474 167.605,483.522 L217.051,434.077 C220.956,430.172 220.956,423.84 217.051,419.935 C213.148,416.03 206.818,416.03 202.909,419.935 Z"></path>
    <path fill="currentColor" d="M373.562,416.139 L323.982,465.719 C320.077,469.624 320.077,475.956 323.982,479.862 C325.935,481.814 328.494,482.791 331.053,482.791 C333.612,482.791 336.171,481.814 338.124,479.862 L387.704,430.282 C391.609,426.377 391.609,420.045 387.704,416.139 C383.798,412.235 377.468,412.235 373.562,416.139 Z"></path>
    <path fill="currentColor" d="M276.43,153.38 C279.06,153.38 281.64,152.32 283.5,150.45 C285.359,148.59 286.43,146.02 286.43,143.39 C286.43,140.75 285.36,138.17 283.5,136.31 C281.64,134.45 279.06,133.38 276.43,133.38 C273.8,133.38 271.22,134.45 269.36,136.31 C267.501,138.17 266.43,140.75 266.43,143.39 C266.43,146.02 267.5,148.59 269.36,150.45 C271.22,152.32 273.8,153.38 276.43,153.38 Z"></path>
  </g>
</svg>