<svg version="1.0" xmlns="http://www.w3.org/2000/svg" width="128.000000pt" height="128.000000pt" viewBox="0 0 128.000000 128.000000" preserveAspectRatio="xMidYMid meet">
  <g transform="translate(0.000000,128.000000) scale(0.100000,-0.100000)" fill="#017efe" stroke="none">
    <path d="M0 640 l0 -640 640 0 640 0 0 640 0 640 -640 0 -640 0 0 -640z m1021
    380 c10 -6 19 -21 19 -33 0 -21 -118 -527 -143 -612 -10 -32 -17 -41 -39 -43
    -25 -3 -31 4 -79 100 -29 57 -69 148 -90 203 -21 56 -40 93 -43 85 -13 -35
    -104 -348 -111 -377 -9 -45 -48 -83 -84 -83 -53 0 -87 70 -141 295 -30 125
    -63 226 -86 260 -20 28 -17 43 12 70 54 51 59 43 143 -228 68 -219 80 -252 85
    -246 7 7 126 392 137 442 10 46 30 67 63 67 25 0 44 -40 86 -177 54 -180 81
    -249 90 -232 4 8 33 122 65 254 32 132 62 246 67 253 13 15 23 15 49 2z"/>
  </g>
</svg>
