<svg width="128px" height="128px" viewBox="0 0 128 128" version="1.1" xmlns="http://www.w3.org/2000/svg" xmlns:xlink="http://www.w3.org/1999/xlink">
    <defs>
        <filter x="-30.0%" y="-36.8%" width="173.3%" height="215.8%" filterUnits="objectBoundingBox" id="filter-1">
            <feOffset dx="2" dy="4" in="SourceAlpha" result="shadowOffsetOuter1"></feOffset>
            <feGaussianBlur stdDeviation="3" in="shadowOffsetOuter1" result="shadowBlurOuter1"></feGaussianBlur>
            <feColorMatrix values="0 0 0 0 0   0 0 0 0 0   0 0 0 0 0  0 0 0 0.5 0" type="matrix" in="shadowBlurOuter1" result="shadowMatrixOuter1"></feColorMatrix>
            <feMerge>
                <feMergeNode in="shadowMatrixOuter1"></feMergeNode>
                <feMergeNode in="SourceGraphic"></feMergeNode>
            </feMerge>
        </filter>
        <path d="M84.875,46 L41.75,46 C39.6757812,46 38,47.519375 38,49.4 L38,69.8 C38,75.43125 43.0390625,80 49.25,80 L71.75,80 C77.9609375,80 83,75.43125 83,69.8 L84.875,69.8 C92.1171875,69.8 98,64.46625 98,57.9 C98,51.33375 92.1171875,46 84.875,46 Z M75,69.2857143 C75,71.8883929 72.7604167,74 70,74 L50,74 C47.2395833,74 45,71.8883929 45,69.2857143 L45,52 L75,52 L75,69.2857143 Z M84.2,65 L82,65 L82,51 L84.2,51 C89.05375,51 93,54.1390625 93,58 C93,61.8609375 89.05375,65 84.2,65 Z" id="path-2"></path>
        <filter x="-15.0%" y="-20.6%" width="136.7%" height="164.7%" filterUnits="objectBoundingBox" id="filter-3">
            <feOffset dx="2" dy="4" in="SourceAlpha" result="shadowOffsetOuter1"></feOffset>
            <feGaussianBlur stdDeviation="3" in="shadowOffsetOuter1" result="shadowBlurOuter1"></feGaussianBlur>
            <feColorMatrix values="0 0 0 0 0   0 0 0 0 0   0 0 0 0 0  0 0 0 0.5 0" type="matrix" in="shadowBlurOuter1"></feColorMatrix>
        </filter>
    </defs>
    <g id="Page-1" stroke="none" stroke-width="1" fill="none" fill-rule="evenodd">
        <rect id="Rectangle" fill="#D8D8D8" fill-rule="nonzero" opacity="0" x="0" y="0" width="128" height="128"></rect>
        <path d="M105.375,10 L23.625,10 C16.1099609,10 10,16.1096038 10,23.6242036 L10,84.9331197 C10,92.4477195 16.1099609,98.5573233 23.625,98.5573233 L44.0625,98.5573233 L44.0625,116.439091 C44.0625,118.525297 46.446875,119.738702 48.1287109,118.504009 L74.71875,98.5573233 L105.375,98.5573233 C112.890039,98.5573233 119,92.4477195 119,84.9331197 L119,23.6242036 C119,16.1096038 112.890039,10 105.375,10 Z" id="Path" fill="#17A05D" fill-rule="nonzero"></path>
        <g id="Group-2" filter="url(#filter-1)" transform="translate(45.000000, 25.000000)" fill="#FFFFFF" fill-rule="nonzero">
            <path d="M23.4491009,17.396875 C23.6231062,18.31125 24.5199032,19 25.5907055,19 L27.7992352,19 C29.110968,19 30.1550003,17.990625 29.9809949,16.8625 C29.4723638,13.51375 27.7858502,10.42625 25.0820744,7.991875 C23.1546302,6.24625 21.9232076,4.0375 21.5484268,1.63875 C21.4011915,0.700625 20.4910095,0 19.3934372,0 L17.1982924,0 C15.8865596,0 14.8559124,1.009375 15.0165327,2.1375 C15.5385489,5.925625 17.4258379,9.416875 20.4508544,12.16 C22.0570579,13.60875 23.0877051,15.425625 23.4491009,17.396875 Z" id="Path"></path>
            <path d="M8.44807755,17.396875 C8.6221101,18.31125 9.51904712,19 10.5900167,19 L12.7988914,19 C14.1108292,19 15.1550245,17.990625 14.9809919,16.8625 C14.4722814,13.51375 12.7855043,10.42625 10.0813061,7.991875 C8.15356092,6.24625 6.92194591,4.0375 6.54710656,1.63875 C6.39984824,0.700625 5.48952411,0 4.3917803,0 L2.19629268,0 C0.884354956,0 -0.133066136,1.009375 0.0141921803,2.1375 C0.536289846,5.925625 2.42387371,9.416875 5.44936275,12.16 C7.05581711,13.60875 8.08662532,15.425625 8.44807755,17.396875 Z" id="Path"></path>
        </g>
        <g id="Shape" fill-rule="nonzero">
            <use fill="black" fill-opacity="1" filter="url(#filter-3)" xlink:href="#path-2"></use>
            <use fill="#FFFFFF" xlink:href="#path-2"></use>
        </g>
    </g>
</svg>