<svg xmlns="http://www.w3.org/2000/svg" viewBox="0 0 576 512" version="1.1">
  <path stroke="none" stroke-width="1" fill-rule="evenodd" fill="currentColor" d="M528,0 L48,0 C21.5,0 0,21.5 0,48 L0,336 C0,362.5 21.5,384 48,384 L240,384 L216,480 L144,480 C135.2,480 128,487.2 128,496 C128,504.8 135.2,512 144,512 L432,512 C440.8,512 448,504.8 448,496 C448,487.2 440.8,480 432,480 L360,480 L336,384 L528,384 C554.5,384 576,362.5 576,336 L576,48 C576,21.5 554.5,0 528,0 Z M249,480 L265,416 L311,416 L327,480 L249,480 Z M544,336 C544,344.8 536.8,352 528,352 L48,352 C39.2,352 32,344.8 32,336 L32,48 C32,39.2 39.2,32 48,32 L528,32 C536.8,32 544,39.2 544,48 L544,336 Z"></path>
  <path stroke="none" stroke-width="1" fill-rule="evenodd" fill="currentColor" d="M432.222204,165.558552 L340.55716,73.2072055 C327.69571,60.2487832 304.666558,68.8803695 304.666558,87.0862099 L304.666558,131.335387 C218.493698,132.331764 138,147.364257 138,233.241914 C138,280.917423 167.083314,308.650836 184.421845,320.868376 C197.043191,329.763989 214.641096,318.362626 210.296828,303.545973 C190.57132,236.101541 224.236923,228.61491 304.666558,227.705371 L304.666558,271.796935 C304.666558,289.987215 327.682168,298.648416 340.55716,285.675939 L432.222725,193.316561 C439.925845,185.551346 439.925845,173.323767 432.222204,165.558552 Z M420.1769,182.213358 L328.510293,274.572736 C325.941023,277.162814 321.333214,275.441115 321.333214,271.796935 L321.333214,211.562558 C232.064522,211.562558 167.52446,216.435017 194.26038,307.786975 C175.499976,294.565529 154.666656,270.587228 154.666656,233.241914 C154.666656,152.924392 239.503059,147.312556 321.333214,147.312556 L321.333214,87.0781787 C321.333214,83.4329949 325.943107,81.7122996 328.510293,84.3023778 L420.1769,176.661756 C421.723814,178.212025 421.723814,180.663089 420.1769,182.213358 Z"></path>
</svg>